<svg version="1.1" xmlns="http://www.w3.org/2000/svg" xmlns:xlink="http://www.w3.org/1999/xlink" x="0px" y="0px" viewBox="0 0 60 60" style="enable-background:new 0 0 60 60;" xml:space="preserve">
    <path class="icon" d="M9.6,19.2l7.1-5.7L29,21.1L41.4,9.6l-1.8-2.2L50.4,5l-3.3,10.7l-1.9-2L29.5,28l-12.4-7.9l-7.5,6.2V19.2z M9.6,32.6v16.2
	h10.7v-20l-3.4-2.1L9.6,32.6z M24.5,31.4v17.4h10.8V28.6l-6,5.6L24.5,31.4z M39.6,24.7v24.1h10.8V15.3l-2.2,6.4l-2.5-2.7L39.6,24.7z
	 M50.4,52.1H9.6V55h40.8V52.1z"></path>
</svg>