<svg version="1.1" xmlns="http://www.w3.org/2000/svg" xmlns:xlink="http://www.w3.org/1999/xlink" x="0px" y="0px" viewBox="0 0 60 60" style="enable-background:new 0 0 60 60;" xml:space="preserve">
    <path class="icon" d="M42.5,36.9c-5.6-1.3-11.3-1.6-17-0.9c-0.7,0.1-1.3-0.4-1.5-1l-3.9-12.2c-0.2-0.7,0.1-1.4,0.7-1.7c5.1-2.7,9.6-6.2,13.4-10.5
	c0.5-0.6,1.4-0.6,2-0.1c0.2,0.2,0.3,0.4,0.4,0.6c2.5,8,5,15.9,7.5,23.9c0.2,0.7-0.2,1.5-0.9,1.8C43,37,42.7,37,42.5,36.9z
	 M16.6,22.7c-1.4,0.4-4.6,1.4-6.4,2c-4,1.4-6,5.7-4.6,9.7c1.3,3.7,5.2,5.8,9,4.8c1.5-0.4,5-1.5,6.6-2c0.4-0.1,0.6-0.5,0.5-0.9
	l-4.1-13.1C17.4,22.8,17,22.6,16.6,22.7z M20.5,49.4c0.6,0.9,1.7,1.2,2.7,0.9c1.7-0.5,3.4-1.1,5.1-1.6c0.7-0.2,1.1-0.9,0.9-1.6
	c-0.1-0.4-0.4-0.7-0.8-0.9c-1-0.4-1.9-1.2-2.5-2.1c-1-1.5-2.1-3-3.1-4.6c-0.1-0.2-0.3-0.2-0.4-0.2c0,0,0,0,0,0l-6.6,2.1
	c-0.3,0.1-0.5,0.4-0.4,0.7c0,0.1,0,0.1,0.1,0.2C16.5,43.7,19,47.4,20.5,49.4z M45.7,12.7c5.2,3.5,7.3,10.2,5,16
	c-0.3,0.8,0,1.7,0.8,2.1l0,0c0.8,0.4,1.8,0.1,2.2-0.7c0-0.1,0.1-0.1,0.1-0.2c2.8-7.3,0.2-15.6-6.3-20c-0.8-0.5-1.8-0.3-2.3,0.5
	c0,0-0.1,0.1-0.1,0.1l0,0C44.7,11.3,44.9,12.2,45.7,12.7z M42.9,17.7c1.3,1,2.2,2.3,2.7,3.8c0.5,1.5,0.5,3.1,0,4.7
	c-0.2,0.7,0.1,1.6,0.8,1.9l0,0c0.8,0.4,1.8,0.1,2.2-0.7c0-0.1,0.1-0.2,0.1-0.2c0.8-2.3,0.7-4.8-0.1-7.1c-0.7-1.9-2-3.6-3.6-4.9
	c-0.7-0.5-1.7-0.4-2.3,0.3c-0.1,0.1-0.1,0.1-0.1,0.2l0,0C42.1,16.4,42.3,17.2,42.9,17.7L42.9,17.7z"></path>
</svg>