<svg version="1.1" xmlns="http://www.w3.org/2000/svg" xmlns:xlink="http://www.w3.org/1999/xlink" x="0px" y="0px" viewBox="0 0 60 60" style="enable-background:new 0 0 60 60;" xml:space="preserve">
    <path class="icon" d="M36.4,16.9c0.2,1,0.4,1.9,0.6,2.8c-0.3,0.1-0.7,0.1-1,0.2c-0.8,0.2-1.6,0.4-2.3,0.7c-2.2,0.8-3.2,2.1-3.2,4.4
		c0,2.1,0.1,4.2,0.3,6.3c0.4,3.7,0.9,7.4,0.7,11.1c-0.2,4.2-1.4,8-4.4,11.1c-0.3,0.3-0.5,0.6-0.8,0.9c-0.6,0.6-1.4,0.7-2.1,0.2
		c-0.6-0.5-0.7-1.4-0.2-2.1c0.4-0.5,0.9-1.1,1.4-1.6c1.8-2,2.6-4.3,3-6.9c0.4-3.2,0.1-6.4-0.2-9.6c-0.3-2.5-0.6-5.1-0.7-7.6
		c-0.1-1.3,0.1-2.6,0.3-3.8c0.4-2.1,1.7-3.6,3.7-4.6C33,17.7,34.6,17.3,36.4,16.9z"></path>
	<path class="icon" d="M32.5,33.8c-0.1-1-0.2-1.9-0.4-2.9c1-0.3,1.9-0.6,2.8-0.9c0.7-0.2,1.3-0.5,1.9-0.9c2-1.1,2.8-2.9,2.5-5.1
		c-0.2-1.8-0.6-3.7-1.1-5.5c-0.6-2.6-1.4-5.3-1.2-8c0.1-1.7,0.5-3.2,1.3-4.7c0.5-0.8,1.3-1.1,2-0.7c0.7,0.4,1,1.3,0.5,2.1
		c-1,1.8-1.2,3.8-0.8,5.8c0.5,2.5,1.1,4.9,1.7,7.3c0.4,1.8,0.7,3.6,0.5,5.4c-0.3,2.1-1.3,3.8-3,5.1c-1.7,1.3-3.6,1.9-5.6,2.5
		C33.4,33.6,33,33.7,32.5,33.8z"></path>
	<path class="icon" d="M26.3,31.8c0.2,1,0.3,1.9,0.5,2.9c-0.6,0.1-1.2,0.1-1.8,0.2c-2.4,0.2-4.7,0.5-6.9,1.5c-2.3,1.1-4.1,2.8-5.8,4.6
		c-0.3,0.4-0.7,0.8-1,1.1c-0.6,0.6-1.4,0.6-2,0c-0.6-0.5-0.7-1.4-0.1-2c2.1-2.4,4.4-4.6,7.2-6.2c2.2-1.2,4.5-1.7,7-1.9
		C24.3,32,25.3,31.9,26.3,31.8z"></path>
	<path class="icon" d="M25.8,48.7c-0.5,0.7-1,1.3-1.6,2c-3.4-3.2-6.9-6.4-10.3-9.6c0.6-0.6,1.2-1.1,1.8-1.7C19.1,42.5,22.4,45.6,25.8,48.7z"></path>
	<path class="icon" d="M43,18.7c-0.3-1.1-0.5-2-0.7-2.9c0.1,0,0.2-0.1,0.2-0.1c2.5-0.9,4.4-2.5,5.9-4.7c0.2-0.3,0.6-0.6,0.9-0.7
		c0.6-0.2,1.2,0.1,1.5,0.5c0.4,0.6,0.4,1.1,0,1.7c-1.3,2-2.9,3.7-5,4.8C45,17.8,44,18.2,43,18.7z"></path>
	<path class="icon" d="M18.4,37.5c1-0.3,1.8-0.6,2.7-0.9c0.1,0,0.4,0.1,0.5,0.2c1.9,1.7,3.7,3.4,5.6,5.2c0.1,0.1,0.2,0.2,0.2,0.4c0,1,0,2-0.6,3
		C24,42.7,21.3,40.2,18.4,37.5z"></path>
	<path class="icon" d="M32.8,22.3c0.8-0.3,1.5-0.6,2.3-0.8c0.1,0,0.3,0,0.5,0.1c0.8,0.5,1.6,1,2.4,1.5c0.2,0.1,0.3,0.3,0.3,0.5c0,0.7,0,1.4,0,2.3
		c-1.9-1.2-3.7-2.3-5.5-3.4C32.8,22.4,32.8,22.3,32.8,22.3z"></path>
	<path class="icon" d="M31.7,24.6c1.7,1.1,3.4,2.1,5.2,3.3c-0.9,0.4-1.6,0.7-2.3,1.1c-0.1,0-0.3-0.1-0.4-0.1c-0.8-0.5-1.6-1-2.3-1.5
		c-0.2-0.1-0.3-0.3-0.3-0.5c0-0.7,0-1.5,0-2.2C31.6,24.7,31.6,24.6,31.7,24.6z"></path>
	<path class="icon" d="M47.4,10.3c-0.3,0.4-0.6,0.8-0.9,1.1c-0.1,0.1-0.3,0.1-0.4,0.1c-1.5-0.8-3.1-1.6-4.7-2.5c0.2-0.5,0.4-1,0.7-1.5
		C43.9,8.5,45.6,9.4,47.4,10.3z"></path>
	<path class="icon" d="M45.1,13c-0.5,0.3-0.9,0.6-1.3,0.8c-0.2,0.1-0.4,0.1-0.6,0c-0.5-0.2-0.9-0.5-1.4-0.7c-0.4-0.2-0.5-0.4-0.5-0.8
		c0-0.4,0-0.9,0-1.4C42.6,11.6,43.8,12.3,45.1,13z"></path>
</svg>