<svg version="1.1" xmlns="http://www.w3.org/2000/svg" xmlns:xlink="http://www.w3.org/1999/xlink" x="0px" y="0px" viewBox="0 0 60 60" style="enable-background:new 0 0 60 60;" xml:space="preserve">
    <path class="icon" d="M53.2,32.2h-4.3v0v-1.7c0-0.6-0.5-1.1-1.1-1.1s-1.1,0.5-1.1,1.1v1.7v0H29.4c-1.1,0-2,0.9-2,2v12.7v0.1h-0.9
		c-0.6,0-1.1,0.5-1.1,1.1s0.5,1.1,1.1,1.1h0.9c0.1,1,0.9,1.8,2,1.8h9.4v2.3c0,0.4-0.2,0.7-0.5,1c0,0-2,0.8-1.1,0.8c0.8,0,7,0,7.6,0
		c0,0,0,0,0.1,0c0.1,0,0.2,0,0.5,0c0.8,0-1.2-0.9-1.2-0.9c-0.3-0.2-0.5-0.6-0.5-0.9v-2.3h9.4c1.1,0,2-0.9,2-2v-2.1V34.1
		C55.2,33.1,54.3,32.2,53.2,32.2z M41.3,49.7c-0.5,0-0.8-0.4-0.8-0.8c0-0.5,0.4-0.8,0.8-0.8c0.5,0,0.8,0.4,0.8,0.8
		C42.1,49.3,41.7,49.7,41.3,49.7z M53.5,45.2H29.1V34.1c0-0.2,0.2-0.3,0.3-0.3h23.8c0.2,0,0.3,0.2,0.3,0.3V45.2z"></path>
	<path class="icon" d="M11.3,23.8c0.1,0,0.2,0,0.2,0h4.7V26c0,0.4-0.2,0.7-0.5,1c0,0-2,0.8-1.1,0.8c0.8,0,7,0,7.6,0c0,0,0,0,0.1,0
		c0.1,0,0.2,0,0.5,0c0.8,0-1.2-0.9-1.2-0.9c-0.3-0.2-0.5-0.6-0.5-0.9v-2.3h9.4c1.1,0,2-0.9,2-2v-2.1v-7.2h1.7c0.6,0,1.1-0.5,1.1-1.1
		c0-0.6-0.5-1.1-1.1-1.1h-1.7V7c0-1.1-0.9-2-2-2H6.8c-1.1,0-2,0.9-2,2v12.7v2.1c0,1.1,0.9,2,2,2H11C11.1,23.8,11.2,23.8,11.3,23.8z
		 M18.7,22.5c-0.5,0-0.8-0.4-0.8-0.8c0-0.5,0.4-0.8,0.8-0.8c0.5,0,0.8,0.4,0.8,0.8C19.5,22.2,19.2,22.5,18.7,22.5z M6.5,18V7
		c0-0.2,0.2-0.3,0.3-0.3h23.8c0.2,0,0.3,0.2,0.3,0.3V18H6.5z"></path>
	<path class="icon" d="M11.3,33.7c-0.6,0-1.1,0.5-1.1,1.1v2.8c0,0.6,0.5,1.1,1.1,1.1c0.6,0,1.1-0.5,1.1-1.1v-2.8C12.4,34.2,11.9,33.7,11.3,33.7z"></path>
	<path class="icon" d="M12.4,27.3c0-0.6-0.5-1.1-1.1-1.1c-0.6,0-1.1,0.5-1.1,1.1v2.8c0,0.6,0.5,1.1,1.1,1.1c0.6,0,1.1-0.5,1.1-1.1V27.3z"></path>
	<path class="icon" d="M16.8,46.9h-1.4c-0.4-1.5-1.6-2.6-3-3v-1.6c0-0.6-0.5-1.1-1.1-1.1c-0.6,0-1.1,0.5-1.1,1.1v1.6C8.3,44.4,7,46,7,48
		c0,2.4,1.9,4.3,4.3,4.3c2,0,3.7-1.4,4.2-3.2h1.4c0.6,0,1.1-0.5,1.1-1.1S17.5,46.9,16.8,46.9z M11.3,50.7c-1.4,0-2.6-1.2-2.6-2.6
		c0-1.4,1.2-2.6,2.6-2.6s2.6,1.2,2.6,2.6C13.9,49.5,12.7,50.7,11.3,50.7z"></path>
	<path class="icon" d="M22.8,46.9h-2.2c-0.6,0-1.1,0.5-1.1,1.1s0.5,1.1,1.1,1.1h2.2c0.6,0,1.1-0.5,1.1-1.1S23.4,46.9,22.8,46.9z"></path>
	<path class="icon" d="M42,12.5h1.6c0.4,1.5,1.6,2.6,3,3v1.6c0,0.6,0.5,1.1,1.1,1.1s1.1-0.5,1.1-1.1v-1.6c1.8-0.5,3.2-2.2,3.2-4.2
		c0-2.4-1.9-4.3-4.3-4.3c-2,0-3.7,1.4-4.2,3.2H42c-0.6,0-1.1,0.5-1.1,1.1C40.9,12,41.4,12.5,42,12.5z M47.7,8.8
		c1.4,0,2.6,1.2,2.6,2.6S49.2,14,47.7,14c-1.4,0-2.6-1.2-2.6-2.6S46.3,8.8,47.7,8.8z"></path>
	<path class="icon" d="M37.2,12.5H39c0.6,0,1.1-0.5,1.1-1.1c0-0.6-0.5-1.1-1.1-1.1h-1.8c-0.6,0-1.1,0.5-1.1,1.1C36.1,12,36.6,12.5,37.2,12.5z"></path>
	<path class="icon" d="M47.7,21.1c-0.6,0-1.1,0.5-1.1,1.1v3.1c0,0.6,0.5,1.1,1.1,1.1s1.1-0.5,1.1-1.1v-3.1C48.9,21.6,48.4,21.1,47.7,21.1z"></path>
</svg>