<svg version="1.1" xmlns="http://www.w3.org/2000/svg" xmlns:xlink="http://www.w3.org/1999/xlink" x="0px" y="0px" viewBox="0 0 60 60" style="enable-background:new 0 0 60 60;" xml:space="preserve">
    <path class="icon" d="M29.7,24.2c-1.1-0.2-2.3-0.4-3.4-0.6c-2-0.4-3.8-1.3-5.4-2.4c-1.2-0.7-1.7-2.3-1.2-3.6c0-0.1,0.1-0.1,0.1-0.2h0.1
	c1.3,1.5,3.6,1.7,5.7,1.9c3.6,0.4,7.2,0.3,10.7-0.3c0.3-0.1,0.6-0.1,0.9-0.2c1-0.1,1.9-0.7,2.5-1.5c0.1,0.1,0.2,0.3,0.3,0.4
	c0.5,1.4-0.1,2.9-1.4,3.6c-2.5,1.6-5.3,2.6-8.3,2.9L30,24.2L29.7,24.2z M33.4,17.8c1.4-0.1,2.7-0.4,4-0.9c0.6-0.3,1-0.6,0.9-1.2
	c-0.3-1.7-0.7-3.4-1.2-5c-0.8-2.5-2.8-4.2-6.1-4.9c-0.1,0-0.2-0.2-0.4-0.3S30.1,5,29.8,5S29.3,5.3,29,5.5s-0.2,0.2-0.3,0.3
	c-3.3,0.7-5.3,2.5-6.1,4.9c-0.5,1.6-0.9,3.2-1.1,4.9c-0.1,0.6,0.2,1,0.9,1.3c0.2,0.1,0.5,0.2,0.7,0.3c2.4,0.6,4.9,0.9,7.4,0.9
	C31.1,18,32.2,17.9,33.4,17.8z M27.7,9.2C27.8,9.1,28,9,28.2,9.1c0.5,0.1,1,0.4,1.5,0c0.1,0,0.2,0,0.4,0c0.4,0.2,0.9,0.2,1.2,0
	C31.6,8.9,32,9,32.2,9.3c0,0,0,0,0,0c0.5,0.6,1,1.1,1.5,1.7c0,0,0,0.1,0,0.1c-0.5,0.3-0.7,1-0.4,1.5c0.2,0.7,0,1.4-0.5,1.9
	c-0.8,0.8-1.8,1.5-2.9,1.8c-0.1,0-0.2,0-0.4,0c-0.8-0.4-1.5-0.8-2.2-1.2c-1.1-0.6-1.5-1.9-0.9-3c0-0.2,0-0.3-0.1-0.5
	c-0.1-0.2-0.3-0.4-0.4-0.5C26.6,10.4,27.1,9.8,27.7,9.2z M28.4,12.5c-0.3,0.7-0.2,1,0.5,1.5s1,0.6,1.8,0.1s0.9-0.9,0.6-1.6
	c-0.2-0.3-0.2-0.7,0-1c0.1-0.2-0.1-0.4-0.4-0.4h-2.1c-0.3,0-0.5,0.1-0.4,0.4l0.2,0.4C28.5,12.1,28.5,12.3,28.4,12.5z M39,22.5
	c-2.4,2.1-5.3,3.4-8.4,3.8h-0.2l-0.3,0.1h-0.5h-0.1l-1-0.2c-0.8-0.2-1.6-0.3-2.3-0.6c-2-0.6-3.9-1.7-5.5-3.1
	c-1.3,3.1-0.8,6.7,1.4,9.3c2.2,2.7,5.7,4,9.1,3.5c4.9-0.6,8.6-4.7,8.6-9.6C39.8,24.5,39.5,23.4,39,22.5L39,22.5z M47.7,50.8
	c-2.5,1.6-5.3,2.7-8.2,3.2c-7.9,1.5-15.7,1.5-23.4-1.3c-1.3-0.5-2.6-1.2-3.8-1.9c-1.1-0.6-1.6-1.9-1.3-3.1c0.6-3.1,2.4-5.8,4.9-7.5
	l0,0c2.3-2,5.2-3.4,8.2-4.1c0.2,0,0.4,0,0.6,0.1l1.6,1.2l3.4,2.7c0.2,0.2,0.6,0.2,0.8,0l3.4-2.7l1.5-1.2c0.2-0.1,0.4-0.2,0.6-0.1
	c3,0.6,5.7,2,8,4c1.3,0.9,2.4,2.1,3.2,3.5c0.8,1.5,1.4,3.1,1.8,4.7C49.2,49.4,48.6,50.4,47.7,50.8z M43,45.1
	c-0.5-0.6-1.1-1.1-1.5-1.7c-0.2-0.3-0.5-0.4-0.8-0.2c-0.4,0.2-0.9,0.2-1.2,0c-0.1-0.1-0.2-0.1-0.3,0c-0.5,0.4-1,0.1-1.5,0
	c-0.2,0-0.4,0-0.5,0.1c-0.6,0.6-1.1,1.2-1.7,1.9c0.2,0.2,0.3,0.3,0.5,0.5c0.1,0.1,0.1,0.3,0.1,0.5c-0.5,1.1-0.1,2.4,0.9,3
	c0.7,0.4,1.5,0.8,2.3,1.1c0.1,0,0.2,0,0.3,0c1.1-0.4,2.1-1,2.9-1.8c0.5-0.5,0.7-1.2,0.5-1.9C42.4,46.2,42.5,45.6,43,45.1
	C43,45.2,43,45.2,43,45.1z"></path>
</svg>