<svg version="1.1" xmlns="http://www.w3.org/2000/svg" xmlns:xlink="http://www.w3.org/1999/xlink" x="0px" y="0px" viewBox="0 0 60 60" style="enable-background:new 0 0 60 60;" xml:space="preserve">
    <path class="icon" d="M24,30.4c-2.7,1-4.9,2.6-6.4,5c-1.5,2.4-1.7,5.1-1.5,8c-1.3-0.2-2.6-0.2-3.8-0.4c-2.3-0.5-4.5-1-6.8-1.5
		C5.1,41.3,5,41.1,5,40.6c0-2.3,0-4.6,0-6.9c0-4.9,3.3-8.7,8-9.4c1-0.2,2-0.1,3-0.1c1.6,0,3.2,0,4.7,0c0.4,0,0.6,0.1,0.6,0.5
		c0.2,2.1,1,3.9,2.5,5.5C23.9,30.2,23.9,30.3,24,30.4z"></path>
	<path class="icon" d="M17.9,23.6c-3.4,0-6.3-1.9-7.2-4.6c-1.1-3.1-0.3-6.3,2.2-8.3c2.3-1.8,4.9-2.2,7.5-1c2.8,1.2,4.2,3.5,4.4,6.5
		c0,0.4-0.1,0.7-0.4,1c-1.5,1.3-2.5,3-3,5c-0.1,0.3-0.3,0.5-0.5,0.7C19.9,23.3,18.8,23.6,17.9,23.6z"></path>
	<path class="icon" d="M37.3,24c-0.2,4.1-3.5,7.3-7.5,7.2c-4.2-0.1-7.3-3.6-7.2-7.5c0.1-4.2,3.6-7.2,7.5-7.1C34.3,16.7,37.5,20.1,37.3,24z"></path>
	<path class="icon" d="M42.5,40.7c-0.1-4.8-4.2-8.8-9-8.9c-0.9,0-1.8,0-2.7,0l0.7,0.6c0.3,0.2,0.4,0.6,0.1,0.8l-1.2,1.6c0,0-0.1,0.1,0,0.2
		l2.5,7.5c0.1,0.2,0,0.4-0.1,0.5l-2.5,3.3c-0.1,0.1-0.3,0.1-0.4,0l-2.6-3.3c-0.1-0.2-0.2-0.4-0.1-0.5l2.5-7.5c0-0.1,0-0.1,0-0.2
		l-1.2-1.6c-0.3-0.3-0.2-0.6,0.1-0.8l0.7-0.6c-1,0-1.9,0-2.9,0c-4.2,0.1-8.1,3.6-8.7,7.7c-0.2,1.6-0.2,3.2-0.2,4.9c0,0,0,0,0.1,0
		c0,1.3,0,2.6,0,3.9c0,0.4,0.1,0.7,0.6,0.8c1.4,0.3,2.8,0.8,4.2,1.1c4.6,1,9.3,1.3,14,0.5c2-0.3,3.9-0.8,5.8-1.7
		c0.3-0.1,0.5-0.3,0.5-0.7C42.5,45.7,42.6,43.2,42.5,40.7z"></path>
	<path class="icon" d="M44.6,43.5c0.5-6.3-1.9-10.8-7.8-13.1c0.5-0.7,1.1-1.4,1.5-2.2c0.6-1.1,1-2.3,1-3.5c0-0.4,0.2-0.5,0.6-0.5
		c2.1,0,4.1,0,6.2,0c4.3,0.1,8.3,3.7,8.7,7.9c0.3,2.9,0.1,5.8,0.1,8.7c0,0.2-0.3,0.4-0.5,0.5c-1.7,0.5-3.3,1.2-5,1.5
		C47.9,43.2,46.3,43.3,44.6,43.5z"></path>
	<path class="icon" d="M42.4,23.7c-0.9-0.2-1.7-0.4-2.6-0.6c-0.2-0.1-0.5-0.4-0.5-0.6c-0.5-2.5-1.7-4.6-3.8-6.1c-0.2-0.1-0.3-0.5-0.3-0.7
		c0.1-2.7,2.3-5.4,4.9-6.3c3-1.1,6.5,0.1,8.4,2.7c2.1,2.9,1.6,7.4-1.1,9.7C45.9,23,44.3,23.6,42.4,23.7z"></path>
</svg>