<svg version="1.1" xmlns="http://www.w3.org/2000/svg" xmlns:xlink="http://www.w3.org/1999/xlink" x="0px" y="0px" viewBox="0 0 60 60" style="enable-background:new 0 0 60 60;" xml:space="preserve">
    <path class="icon" d="M44.1,10.7c-3.6,2.5-7,5.2-10.2,8.1c-4.5,4.4-8.6,9.1-12.3,14.2L21,33.9h-0.1c0.1-0.6,0.2-1.2,0.3-1.7
	c0.9-3.6,2.3-7,4.2-10.2c1.8-3,3.9-5.7,6.4-8.2c3-3.1,6.6-5.5,10.5-7.1c3.4-1.3,10.4-2.1,11-1.5s-0.9,4.4-1.7,5.8
	c-0.1,0.2-0.3,0.3-0.5,0.3c-1.9,0.1-3.8,0.3-5.7,0.7c-0.1,0.2,3.5,0.4,5.3,0.5c0.2,0,0.3,0.2,0.3,0.4c0,0,0,0.1,0,0.1
	c-0.1,0.3-0.2,0.6-0.3,0.8c-1.1,3.1-2.5,6.1-4.2,9C45,25.5,43,27.9,40.6,30c-0.2,0.2-0.5,0.2-0.8,0.1c-1.8-0.6-3.6-1-5.5-1.3
	c-1.5-0.2-5.4-0.7-5.5-0.4s5.9,1.7,8.8,3c0.2,0.1,0.2,0.3,0.1,0.5c0,0.1-0.1,0.1-0.1,0.1l-0.7,0.4c-2.7,1.5-5.7,2.6-8.7,3.1
	c-1.8,0.3-3.6,0.4-5.4,0.4c-0.3,0-0.5,0.2-0.7,0.4c-0.3,0.6-0.7,1.2-1.1,1.8h4.2c0.5,0,0.9,0.4,0.9,0.9v1.2c0,0.7-0.5,1.2-1.2,1.2
	l0,0c-0.2,0-0.4,0.2-0.4,0.4l0,0v2.3h3.2c1.3,0,2.4,1,2.6,2.3c0.2,1.5,0.4,3,0.5,4.5c0.1,0.6,0.1,1.3,0.2,1.9c0.2,0.8-0.3,1.7-1.1,2
	c-0.2,0.1-0.4,0.1-0.6,0H8.2c-0.8,0.1-1.5-0.5-1.7-1.3c0-0.3,0-0.6,0-1c0.3-2.2,0.5-4.5,0.8-6.7c0.1-0.9,0.9-1.7,1.8-1.7
	c1.1,0,2.3,0,3.4,0h0.4V42c0-0.2-0.2-0.4-0.4-0.4l0,0l0,0c-0.6,0-1.2-0.5-1.2-1.2v-1c0-0.7,0.5-1.2,1.2-1.2h6.4
	c0.2,0,0.3-0.1,0.4-0.2c3.3-5.3,7.9-10.3,12.1-15c2.9-3.2,6-6.2,9.2-9c1.4-1.2,4.2-3.3,4.3-3.4S45.3,10,44.1,10.7z"></path>
</svg>