<svg version="1.1" xmlns="http://www.w3.org/2000/svg" xmlns:xlink="http://www.w3.org/1999/xlink" x="0px" y="0px" viewBox="0 0 60 60" style="enable-background:new 0 0 60 60;" xml:space="preserve">
    <path class="icon" d="M21.8,45.3c0-0.3,0-0.5,0-0.8c0-4.7,0-5.7,0-10.4c0-2,1.1-3.1,3.1-3.1c4.8,0,9.7,0,14.5,0c2,0,3.1,1.1,3.1,3.1
	c0,4.7,0,5.7,0,10.4c0,0.6-0.1,0.8-0.8,0.8c-6.4,0-12.9,0-19.3,0C22.4,45.3,22.2,45.3,21.8,45.3z M50.9,22.4c0-1.9,0-3.7,0-5.6l0,0
	c0-0.4-0.4-0.8-0.8-0.8c-1.7,0-3.4,0-5,0c-3.5-0.1-6.4,1.3-9,3.6c0,0,0,0,0,0c-0.3,0.2-0.1,0.7,0.3,0.7c0,0,0,0,0,0
	c3.1,0,6.3,0,9.4,0c2.1,0,3.1,0.8,3.6,2.9c0,0.1,0.1,0.2,0.1,0.3C50.9,23.7,50.9,23.7,50.9,22.4z M5,35.7c0,0.6,0.6,1,1.2,0.8
	c2.2-1,6.6-3.4,7.3-3.4c0.5,0,0.7-0.2,0.7-0.7c0-1.5,0-3,0-4.4c0-1.9,0-3.8,0-5.7c0-0.3,0-0.7-0.5-0.7c-0.8,0-5.3-2.4-7.5-3.4
	C5.6,17.9,5,18.3,5,18.9V35.7z M55,15.5c0-0.5-0.5-0.9-1-0.8c-0.5,0.1-1,0.3-1.5,0.4c-0.2,0.1-0.4,0.3-0.4,0.5c0,3,0,6,0,9
	c0,0.2,0.1,0.4,0.3,0.5c0.5,0.2,1,0.4,1.6,0.6c0.5,0.2,1.1-0.2,1.1-0.8V15.5z M48.4,25.1c0,6.8,0,9.7,0,16.4c0,2.5-0.8,3.8-3,3.8
	c-0.4,0-0.7,0-1.2,0c0-0.4,0-0.7,0-0.9c0-5.2,0-6.6,0-11.8c0-2-1-3.1-3.1-3.1c-5.9,0-11.8,0-17.6,0c-2,0-3.1,1-3.1,3.1
	c0,5.2,0,6.7,0,11.9c0,0.7-0.2,1-0.9,0.9c-0.3,0-0.7,0-1,0c-2,0-3.1-1.1-3.1-3c0-2.8,0-1.7,0-4.5c0-4.2,0-8.4,0-12.6
	c0-0.9,0-1.9,0-2.8c0-0.5,0.4-0.9,0.9-0.9c0,0,0,0,0,0c9.6,0,19.3,0,28.9,0C47.5,21.5,48.4,22.7,48.4,25.1z M27.2,27.2
	c0-0.5-0.5-0.9-1-0.9h-3.5c-0.6,0-1,0.5-1,1.1c0,0.5,0.5,0.9,1,0.9h3.5C26.9,28.3,27.3,27.8,27.2,27.2z M34.1,27.2
	c0-0.5-0.5-0.9-1-0.9h-3.5c-0.6,0-1,0.5-1,1.1c0,0.5,0.5,0.9,1,0.9h3.5C33.8,28.3,34.2,27.8,34.1,27.2z"></path>
</svg>