<svg version="1.1" xmlns="http://www.w3.org/2000/svg" xmlns:xlink="http://www.w3.org/1999/xlink" x="0px" y="0px" viewBox="0 0 60 60" style="enable-background:new 0 0 60 60;" xml:space="preserve">
    <path class="icon" d="M52.8,23.5c-7.3,1.2-13.8-0.4-19.4-5.3c-0.3-0.3-0.7-0.6-1.1-0.8c-0.9-0.6-1.1-0.5-1.5,0.5c-1.3,4.2-2,8.5-2.1,13.5
		c0,0.6,0.1,1.8,0.2,3c0.3,2.9,0.9,5.7,2.5,8.2c2.4,3.8,6,4.8,10,2.8c2.2-1.1,3.9-2.7,5.4-4.5c3.8-4.5,6.1-9.8,7.7-15.5
		C55.2,23.4,55.4,23.1,52.8,23.5z M31.3,26.4c0-0.3,0.3-0.3,0.6-0.4c0.6-0.2,1.2-0.4,1.8-0.3c2.5,0,4.9,2.1,5.1,4.4
		c0,0.2,0,0.6-0.1,0.7c-0.3,0.2-0.5-0.1-0.7-0.2c-1.9-1.4-3.9-2.5-6-3.5C31.6,26.8,31.2,26.8,31.3,26.4z M43.7,39.8
		c-4.2,3.6-9.2,2.2-11-3c-0.1-0.4-0.3-0.8-0.1-1.2c0.4,0,0.5,0.3,0.7,0.5c2.9,2.6,6.3,3.5,10.1,2.9c0.3-0.1,0.7-0.4,0.9,0
		C44.4,39.4,43.9,39.6,43.7,39.8z M50.5,31.9c-0.1,0.3-0.4,0.2-0.6,0.2c-2.2-0.3-4.5-0.2-6.7-0.1c-0.3,0-0.7,0.2-0.8-0.2
		c-0.1-0.3,0.2-0.5,0.4-0.7c1-1.1,2.2-1.6,3.7-1.7c1.5,0.1,2.9,0.6,3.9,1.9C50.5,31.5,50.7,31.7,50.5,31.9z"></path>
	<path class="icon" d="M29.5,18.1c0.4-1.5-0.2-2.8-0.6-4.2c-0.1-0.5-0.5-0.3-0.9-0.2c-0.8,0.3-1.4,0.9-2,1.4c-5.6,4-11.7,5.3-18.4,3.8
		c-0.3-0.1-1.8-0.6-2.2-0.4c-0.1,0.1-0.2,0.1-0.3,0.2C5,19.1,5,19.5,5,19.9c0.1,0.9,0.1,1.5,0.4,2.8c0.3,1.3,0.9,3.1,1.5,4.5
		c1.4,3.9,3.3,7.6,6.1,10.8c1.5,1.7,3.2,3.2,5.4,4c2.9,1.1,5.4,0.5,7.6-1.6c0.5-0.5,0.9-1.1,1.3-1.6c0.6-0.8,0.9-1.7,0.7-2.8
		C27,29.9,27.8,24,29.5,18.1z M11.5,29.1c-0.2,0-0.3,0-0.5,0C10.3,29,9.2,29,9.1,28.3c-0.1-0.7,1-0.5,1.5-0.8c1.6-0.9,3.4-1.6,5-2.7
		c0.2-0.1,0.5-0.4,0.7-0.2c0.2,0.2,0.1,0.5,0.1,0.8C15.9,27.4,13.7,29.1,11.5,29.1z M20.7,36c-2,0.4-3.7,1.3-5.2,2.7
		c-0.2-1.8,2.1-4.7,4.3-5.3c2.3-0.7,5.8,0.8,6.9,3C24.6,35.7,22.7,35.6,20.7,36z M26.5,24.5c-0.9,0.9-2.1,1.4-3.4,1.4
		c-1.5,0-2.8-0.6-3.8-1.9c-0.1-0.2-0.4-0.4-0.2-0.7c0.2-0.2,0.4-0.1,0.6-0.1c2.1,0.3,4.2,0.4,6.4,0.3c0.3,0,0.7-0.2,0.8,0.2
		C27,24.1,26.7,24.3,26.5,24.5z"></path>
</svg>