<svg version="1.1" xmlns="http://www.w3.org/2000/svg" xmlns:xlink="http://www.w3.org/1999/xlink" x="0px" y="0px" viewBox="0 0 60 60" style="enable-background:new 0 0 60 60;" xml:space="preserve">
    <path class="icon" d="M35.9,35.9c-4.2-1.6-8.4-3.3-12.6-4.9c-0.8-0.3-1.5-0.6-2.3-0.9c-0.1,0.2-0.2,0.3-0.3,0.4c-3.1,6.9-6.3,13.7-9.4,20.6
		c-0.8,1.8-0.6,2.5,1,3.8c0.4,0,0.8,0,1.2,0c0.9-0.8,1.9-1.6,2.6-2.5c1.9-2.5,3.7-5,5.5-7.5c0.4-0.6,0.9-0.9,1.6-1.1
		c3.8-1,7.5-2,11.3-3c0.7-0.2,1.4-0.5,1.9-0.9C38.1,38.6,37.8,36.6,35.9,35.9z"></path>
	<path class="icon" d="M51.7,18.6c-0.8-0.3-1.5,0-2.1,0.5c-3,2-6,4.1-9,6.1c-0.3,0.2-0.7,0.2-1,0.1c-1.7-0.8-3.3-1.6-5-2.5
		c-1.5-0.8-3-1.6-4.6-2.3c-1.8-0.7-3.2,0-3.9,1.5c-0.7,1.5,0,3.4,1.8,4.1c3.8,1.7,7.6,3.2,11.5,4.8c0.3,0.1,0.8,0.2,1.1,0.2
		c0,0.1,0.1,0.1,0.1,0.2c0.8-0.4,1.6-0.7,2.2-1.2c1.5-1.2,2.8-2.5,4.2-3.7c1.8-1.6,3.6-3.2,5.3-4.9C53.5,20.6,53.1,19.1,51.7,18.6z"></path>
	<path class="icon" d="M30.9,18.5c3.9,0,6.8-2.9,6.8-6.7C37.8,7.9,34.9,5,31,5c-3.8,0-6.7,2.9-6.8,6.7C24.2,15.4,27.2,18.5,30.9,18.5z"></path>
	<path class="icon" d="M14.5,31.7c1,0.5,1.9-0.1,1.7-1.2c-0.1-0.6-0.3-1.1-0.5-1.7c-0.5-1.3-1.1-2.5-1.7-3.9c2.3-0.2,4.5-0.4,6.6-0.5
		c0.2-1.9,0.4-3.8,0.6-5.8c-4.1,0.6-8.3,1.2-12.5,1.9c-1.8,0.3-2.3,1.6-1.2,3.1c1.7,2.2,3.3,4.5,5.1,6.6
		C13.2,30.8,13.8,31.3,14.5,31.7z"></path>
</svg>